<mxfile host="app.diagrams.net" modified="2021-04-22T03:37:59.154Z" agent="5.0 (Macintosh; Intel Mac OS X 10_15_7) AppleWebKit/537.36 (KHTML, like Gecko) Chrome/89.0.4389.114 Safari/537.36" etag="luxlVVDR3qA-z97PXoQ5" version="14.6.3" type="github">
  <diagram id="sad97KhQNa1WrhspbmL8" name="第 1 页">
    <mxGraphModel dx="2066" dy="1053" grid="1" gridSize="10" guides="1" tooltips="1" connect="1" arrows="1" fold="1" page="1" pageScale="1" pageWidth="827" pageHeight="1169" math="0" shadow="0">
      <root>
        <mxCell id="0" />
        <mxCell id="1" parent="0" />
        <mxCell id="RRO9EXDCj3FPConPyUxb-1" value="ssr" style="rounded=0;whiteSpace=wrap;html=1;" vertex="1" parent="1">
          <mxGeometry x="160" y="310" width="520" height="60" as="geometry" />
        </mxCell>
        <mxCell id="RRO9EXDCj3FPConPyUxb-2" value="&lt;div style=&quot;background-color: rgb(30 , 30 , 30) ; font-family: &amp;#34;menlo&amp;#34; , &amp;#34;monaco&amp;#34; , &amp;#34;courier new&amp;#34; , monospace ; font-size: 16px ; line-height: 24px&quot;&gt;&lt;font color=&quot;#dcdcaa&quot;&gt;restful (接口聚合，裁剪)&lt;/font&gt;&lt;/div&gt;" style="rounded=0;whiteSpace=wrap;html=1;" vertex="1" parent="1">
          <mxGeometry x="160" y="400" width="520" height="60" as="geometry" />
        </mxCell>
        <mxCell id="RRO9EXDCj3FPConPyUxb-3" value="BFF (接口聚合裁剪)" style="rounded=0;whiteSpace=wrap;html=1;" vertex="1" parent="1">
          <mxGeometry x="414" y="490" width="266" height="60" as="geometry" />
        </mxCell>
        <mxCell id="RRO9EXDCj3FPConPyUxb-4" value="api服务" style="rounded=0;whiteSpace=wrap;html=1;" vertex="1" parent="1">
          <mxGeometry x="170" y="580" width="210" height="60" as="geometry" />
        </mxCell>
        <mxCell id="RRO9EXDCj3FPConPyUxb-5" value="api服务" style="rounded=0;whiteSpace=wrap;html=1;" vertex="1" parent="1">
          <mxGeometry x="414" y="580" width="266" height="60" as="geometry" />
        </mxCell>
        <mxCell id="RRO9EXDCj3FPConPyUxb-6" value="" style="endArrow=none;dashed=1;html=1;" edge="1" parent="1">
          <mxGeometry width="50" height="50" relative="1" as="geometry">
            <mxPoint x="70" y="470" as="sourcePoint" />
            <mxPoint x="760" y="470" as="targetPoint" />
          </mxGeometry>
        </mxCell>
        <mxCell id="RRO9EXDCj3FPConPyUxb-7" value="" style="endArrow=none;dashed=1;html=1;dashPattern=1 3;strokeWidth=2;" edge="1" parent="1">
          <mxGeometry width="50" height="50" relative="1" as="geometry">
            <mxPoint x="80" y="560" as="sourcePoint" />
            <mxPoint x="770" y="560" as="targetPoint" />
          </mxGeometry>
        </mxCell>
        <mxCell id="RRO9EXDCj3FPConPyUxb-11" value="" style="endArrow=classic;html=1;entryX=0.202;entryY=0.983;entryDx=0;entryDy=0;entryPerimeter=0;exitX=0.453;exitY=0;exitDx=0;exitDy=0;exitPerimeter=0;" edge="1" parent="1" source="RRO9EXDCj3FPConPyUxb-4" target="RRO9EXDCj3FPConPyUxb-2">
          <mxGeometry width="50" height="50" relative="1" as="geometry">
            <mxPoint x="270" y="570" as="sourcePoint" />
            <mxPoint x="320" y="520" as="targetPoint" />
          </mxGeometry>
        </mxCell>
        <mxCell id="RRO9EXDCj3FPConPyUxb-12" value="" style="endArrow=classic;html=1;" edge="1" parent="1">
          <mxGeometry width="50" height="50" relative="1" as="geometry">
            <mxPoint x="520" y="490" as="sourcePoint" />
            <mxPoint x="520" y="470" as="targetPoint" />
          </mxGeometry>
        </mxCell>
        <mxCell id="RRO9EXDCj3FPConPyUxb-13" value="" style="endArrow=classic;html=1;entryX=0.466;entryY=1.017;entryDx=0;entryDy=0;entryPerimeter=0;exitX=0.455;exitY=-0.033;exitDx=0;exitDy=0;exitPerimeter=0;" edge="1" parent="1" source="RRO9EXDCj3FPConPyUxb-5" target="RRO9EXDCj3FPConPyUxb-3">
          <mxGeometry width="50" height="50" relative="1" as="geometry">
            <mxPoint x="540" y="590" as="sourcePoint" />
            <mxPoint x="590" y="540" as="targetPoint" />
          </mxGeometry>
        </mxCell>
        <mxCell id="RRO9EXDCj3FPConPyUxb-15" value="&lt;span style=&quot;color: rgba(0 , 0 , 0 , 0.87) ; font-family: &amp;#34;helvetica neue&amp;#34; , &amp;#34;helvetica&amp;#34; , &amp;#34;apple color emoji&amp;#34; , &amp;#34;segoe ui emoji&amp;#34; , &amp;#34;segoe ui symbol&amp;#34; , &amp;#34;arial&amp;#34; , &amp;#34;pingfang sc&amp;#34; , &amp;#34;heiti sc&amp;#34; , &amp;#34;hiragino sans gb&amp;#34; , &amp;#34;microsoft yahei&amp;#34; , , sans-serif ; font-size: 14px ; background-color: rgb(255 , 255 , 255)&quot;&gt;corps&lt;/span&gt;" style="text;html=1;strokeColor=none;fillColor=none;align=center;verticalAlign=middle;whiteSpace=wrap;rounded=0;" vertex="1" parent="1">
          <mxGeometry x="20" y="380" width="40" height="20" as="geometry" />
        </mxCell>
        <mxCell id="RRO9EXDCj3FPConPyUxb-16" value="BFF 层" style="text;html=1;strokeColor=none;fillColor=none;align=center;verticalAlign=middle;whiteSpace=wrap;rounded=0;" vertex="1" parent="1">
          <mxGeometry x="30" y="510" width="40" height="20" as="geometry" />
        </mxCell>
        <mxCell id="RRO9EXDCj3FPConPyUxb-17" value="Text" style="text;html=1;strokeColor=none;fillColor=none;align=center;verticalAlign=middle;whiteSpace=wrap;rounded=0;" vertex="1" parent="1">
          <mxGeometry x="30" y="600" width="40" height="20" as="geometry" />
        </mxCell>
        <mxCell id="RRO9EXDCj3FPConPyUxb-18" value="端上" style="rounded=0;whiteSpace=wrap;html=1;" vertex="1" parent="1">
          <mxGeometry x="160" y="170" width="530" height="60" as="geometry" />
        </mxCell>
        <mxCell id="RRO9EXDCj3FPConPyUxb-19" value="" style="endArrow=none;dashed=1;html=1;" edge="1" parent="1">
          <mxGeometry width="50" height="50" relative="1" as="geometry">
            <mxPoint y="260" as="sourcePoint" />
            <mxPoint x="760" y="260" as="targetPoint" />
          </mxGeometry>
        </mxCell>
      </root>
    </mxGraphModel>
  </diagram>
</mxfile>
